HIERARCHY
ROOT root     
{
	OFFSET 0.0000 0.0000 0.0000
	CHANNELS 6 Xposition Yposition Zposition Zrotation Yrotation Xrotation
	JOINT pelvis   
	{
		OFFSET 0.0000 0.0000 0.0000
		CHANNELS 3 Zrotation Yrotation Xrotation
		JOINT thorax   
		{
			OFFSET 0.0000 23.0750 -5.0000
			CHANNELS 3 Zrotation Yrotation Xrotation
			JOINT rclavicle
			{
				OFFSET 0.0000 28.0009 0.0000
				CHANNELS 3 Zrotation Yrotation Xrotation
				JOINT rhumerus 
				{
					OFFSET -18.5725 5.5939 0.0000
					CHANNELS 3 Zrotation Yrotation Xrotation
					JOINT rradius  
					{
						OFFSET -24.8459 0.0000 0.0000
						CHANNELS 3 Zrotation Yrotation Xrotation
						JOINT rhand    
						{
							OFFSET -24.5477 0.0000 0.0000
							CHANNELS 3 Zrotation Yrotation Xrotation
							End Site
							{
								OFFSET -8.1826 0.0000 0.0000
							}
						}
					}
				}
			}
			JOINT lclavicle
			{
				OFFSET 0.0000 28.0009 0.0000
				CHANNELS 3 Zrotation Yrotation Xrotation
				JOINT lhumerus 
				{
					OFFSET 18.5725 5.5939 0.0000
					CHANNELS 3 Zrotation Yrotation Xrotation
					JOINT lradius  
					{
						OFFSET 24.8459 0.0000 0.0000
						CHANNELS 3 Zrotation Yrotation Xrotation
						JOINT lhand    
						{
							OFFSET 24.5477 0.0000 0.0000
							CHANNELS 3 Zrotation Yrotation Xrotation
							End Site
							{
								OFFSET 8.1826 0.0000 0.0000
							}
						}
					}
				}
			}
			JOINT head     
			{
				OFFSET 0.0000 35.2030 0.0000
				CHANNELS 3 Zrotation Yrotation Xrotation
				End Site
				{
					OFFSET 0.0000 11.7343 0.0000
				}
			}
		}
		JOINT rfemur   
		{
			OFFSET -8.2817 0.0000 0.0000
			CHANNELS 3 Zrotation Yrotation Xrotation
			JOINT rtibia   
			{
				OFFSET 0.0000 -43.3627 0.0000
				CHANNELS 3 Zrotation Yrotation Xrotation
				JOINT rfoot    
				{
					OFFSET 0.0000 -38.2947 0.0000
					CHANNELS 3 Zrotation Yrotation Xrotation
					JOINT rtoes    
					{
						OFFSET 0.0000 0.0000 16.6054
						CHANNELS 3 Zrotation Yrotation Xrotation
						End Site
						{
							OFFSET 0.0000 0.0000 5.5351
						}
					}
				}
			}
		}
		JOINT lfemur   
		{
			OFFSET 8.2817 0.0000 0.0000
			CHANNELS 3 Zrotation Yrotation Xrotation
			JOINT ltibia   
			{
				OFFSET 0.0000 -43.3627 0.0000
				CHANNELS 3 Zrotation Yrotation Xrotation
				JOINT lfoot    
				{
					OFFSET 0.0000 -38.2947 0.0000
					CHANNELS 3 Zrotation Yrotation Xrotation
					JOINT ltoes    
					{
						OFFSET 0.0000 0.0000 16.6054
						CHANNELS 3 Zrotation Yrotation Xrotation
						End Site
						{
							OFFSET 0.0000 0.0000 5.5351
						}
					}
				}
			}
		}
	}
}
MOTION
Frames: 21
Frame Time: .0333333
12.778 77.958 8.0904 -38.0022 -79.7174 75.5664 0 -0 0 -6.82773 -7.9467 9.48499 22.6729 -18.3582 2.47635e-06 50.2862 -11.7723 17.4147 -180 83.6174 -180 -11.3794 4.54876 -0.453391 -9.05971 14.2816 4.56106e-05 -49.1371 5.28922 -3.91913 -180 -65.4482 180 6.23322 1.45492 0.0792012 14.8351 -2.04783 -23.85 12.3837 -10.9039 -77.2639 -0 -0 73.9573 1.19177e-05 -17.8373 18.2078 -5.7415 1.1332e-05 -65.558 -5.80784 6.02856 -72.7552 -0 -0 55.999 1.01415e-06 8.49707 -10.9174 -1.6208 -2.02827e-07 -28.3534 
12.505 78.167 8.121 -40.814 -79.5102 77.6925 0 -0 0 -6.47928 -8.25187 9.47812 22.4313 -18.4298 -0.000119117 49.9782 -12.0572 18.2744 -180 84.1037 -180 -11.2874 4.50893 -0.445804 -9.20672 14.3491 -6.7172e-05 -48.6706 5.21672 -4.20343 -180 -65.5413 180 6.51656 1.58595 0.0903021 14.5099 -1.70916 -22.8767 12.4286 -10.243 -78.0069 -0 -0 75.7039 -8.38975e-05 -18.2281 21.6585 -6.93002 -6.93623e-05 -64.9571 -5.53509 6.71398 -71.8446 -0 -0 55.7824 -3.81392e-06 8.37235 -10.9762 -1.60504 1.79468e-05 -28.708 
12.23 78.385 8.1476 -43.5675 -79.2799 79.7529 0 -0 0 -6.11048 -8.56079 9.4818 22.1976 -18.4981 9.62007e-05 49.6149 -12.3201 19.1093 -180 84.4866 -180 -11.1797 4.47224 -0.437911 -9.35331 14.4133 -1.24549e-05 -48.2345 5.14849 -4.46915 -180 -65.664 180 6.78176 1.7022 0.100899 14.2179 -1.35349 -21.8597 12.5254 -9.60046 -78.7765 -0 -0 77.4295 0.000114208 -18.2669 24.9361 -7.92276 -4.068e-05 -64.6329 -5.22132 7.38942 -70.9075 -0 -0 55.5411 1.12538e-05 8.27402 -11.0207 -1.59238 6.0376e-06 -29.0647 
11.956 78.61 8.1716 -46.2247 -79.034 81.7215 0 -0 0 -5.73945 -8.86787 9.48509 21.9832 -18.5682 -0.00014067 49.2053 -12.5643 19.9119 -180 84.7446 -180 -11.0551 4.44122 -0.430003 -9.48492 14.4678 3.45832e-05 -47.8398 5.08793 -4.70948 -180 -65.8142 180 7.02048 1.79933 0.110403 13.9697 -0.981345 -20.8036 12.6568 -8.97818 -79.5748 -0 -0 79.1268 -1.12002e-06 -17.9185 27.9567 -8.61975 3.04963e-05 -64.6218 -4.87363 8.03694 -69.9532 -0 -0 55.2702 -1.8161e-06 8.21082 -11.0501 -1.58417 -4.83462e-07 -29.3842 
11.685 78.843 8.1927 -48.7631 -78.7775 83.5774 0 -0 0 -5.36072 -9.16444 9.48767 21.7824 -18.6434 0.000131716 48.764 -12.788 20.6669 -180 84.8894 -180 -10.9145 4.41958 -0.422405 -9.59726 14.5097 -1.26793e-05 -47.4978 5.03001 -4.9205 -180 -65.9889 180 7.22773 1.87554 0.118501 13.7657 -0.592483 -19.7239 12.8189 -8.37273 -80.3976 -0 -0 80.775 1.91666e-05 -17.1737 30.649 -8.95317 2.99691e-05 -64.9464 -4.48548 8.64643 -68.9843 -0 -0 54.971 3.88422e-06 8.18839 -11.0581 -1.58083 1.27119e-05 -29.7097 
11.42 79.082 8.2125 -51.1813 -78.5141 85.3261 0 -0 0 -4.9794 -9.44395 9.48533 21.5962 -18.7285 -5.468e-05 48.3071 -12.9894 21.3641 -180 84.9296 -180 -10.7613 4.40827 -0.415407 -9.68742 14.5339 -9.51801e-05 -47.2105 4.97745 -5.10144 -180 -66.1836 180 7.40137 1.93013 0.124804 13.6029 -0.184517 -18.6316 13.0053 -7.7836 -81.2518 -0 -0 82.3643 1.29254e-05 -16.0481 32.9439 -8.89083 -5.41594e-05 -65.5145 -4.06217 9.21047 -68.0107 -0 -0 54.6447 8.23847e-06 8.21101 -11.0415 -1.58302 -1.416e-05 -30.0467 
11.163 79.327 8.2343 -53.5136 -78.2537 87.0136 0 -0 0 -4.61454 -9.70031 9.47038 21.4273 -18.8179 -3.16578e-06 47.8476 -13.1688 21.9989 -180 84.8783 -180 -10.6003 4.40724 -0.409104 -9.75161 14.5368 6.63256e-05 -46.9823 4.93984 -5.25655 -180 -66.3856 180 7.53939 1.96303 0.129402 13.4845 0.248493 -17.5369 13.2001 -7.2074 -82.1501 -0 -0 83.8758 -4.38153e-05 -14.5971 34.7881 -8.4512 6.08573e-05 -66.1984 -3.6221 9.72644 -67.0371 -0 -0 54.291 -1.58642e-06 8.28104 -11.002 -1.59111 -1.15539e-05 -30.3365 
10.917 79.576 8.2594 -55.7766 -78.0132 88.6572 0 -0 0 -4.26518 -9.92706 9.4448 21.2717 -18.91 9.00467e-05 47.4 -13.3234 22.5606 -180 84.7636 -180 -10.4375 4.41663 -0.403604 -9.79434 14.5211 -0.00010129 -46.8082 4.91929 -5.39031 -180 -66.5908 180 7.64405 1.97664 0.132101 13.3988 0.710395 -16.456 13.4012 -6.63754 -83.0998 -0 -0 85.2926 0.000107243 -12.9183 36.1577 -7.70724 -2.3136e-05 -66.9083 -3.17204 10.1989 -66.0681 -0 -0 53.9065 8.18327e-06 8.39682 -10.9382 -1.60445 -1.58673e-05 -30.5921 
10.682 79.83 8.2874 -58.0265 -77.7668 90.309 0 -0 0 -3.91078 -10.1195 9.42294 21.1211 -18.9985 -7.09859e-05 46.9786 -13.4464 23.0458 -180 84.5773 -180 -10.2802 4.4334 -0.399 -9.82957 14.4878 7.97835e-06 -46.686 4.9095 -5.50863 -180 -66.7879 180 7.7199 1.97528 0.133302 13.3322 1.20552 -15.4054 13.6221 -6.07029 -84.0951 -0 -0 86.5871 -7.34844e-05 -11.1422 37.0626 -6.76943 -2.03744e-05 -67.5494 -2.70365 10.6375 -65.1076 -0 -0 53.5019 -9.19382e-06 8.55314 -10.8491 -1.62151 -9.79597e-06 -30.8615 
10.461 80.087 8.3212 -60.3001 -77.5376 92.0114 0 -0 0 -3.57398 -10.2747 9.40082 20.9767 -19.0757 0.00010151 46.5925 -13.5405 23.4517 -180 84.3558 -180 -10.1346 4.45605 -0.395304 -9.85613 14.4405 1.54706e-05 -46.6077 4.92131 -5.61808 -180 -66.9695 180 7.76955 1.96095 0.133201 13.2845 1.73677 -14.3912 13.8483 -5.49968 -85.1522 -0 -0 87.7489 -3.33437e-05 -9.41111 37.5383 -5.76667 -3.70818e-06 -68.0426 -2.24354 11.0518 -64.1596 -0 -0 53.0737 -5.64979e-06 8.74442 -10.7409 -1.642 1.38175e-05 -31.0727 
10.253 80.346 8.3586 -62.6096 -77.3033 93.7663 0 -0 0 -3.22332 -10.3924 9.39803 20.8289 -19.136 0.000174948 46.2525 -13.5991 23.7752 -180 84.098 -180 -10.0071 4.48036 -0.392504 -9.89098 14.3876 -4.39417e-05 -46.5685 4.94325 -5.72372 -180 -67.1295 180 7.79971 1.93837 0.132199 13.2349 2.304 -13.4302 14.1013 -4.92078 -86.2583 -0 -0 88.7562 -5.97824e-06 -7.85774 37.6549 -4.81912 8.06037e-06 -68.3489 -1.77433 11.4551 -63.2223 -0 -0 52.6323 -5.40724e-06 8.96123 -10.6138 -1.6637 -3.44875e-06 -31.2939 
10.06 80.605 8.4018 -64.9882 -77.0687 95.6138 0 -0 0 -2.88187 -10.4731 9.41365 20.6853 -19.1718 -0.000162163 45.9575 -13.6295 24.019 -180 83.8129 -180 -9.90291 4.50437 -0.390405 -9.92905 14.3325 4.07088e-05 -46.5637 4.98245 -5.82947 -180 -67.2637 180 7.8133 1.90921 0.1304 13.1906 2.90472 -12.5249 14.3661 -4.33064 -87.421 -0 -0 89.6017 -3.84541e-05 -6.5827 37.5007 -4.01852 -5.89001e-06 -68.4496 -1.32086 11.8571 -62.3016 -0 -0 52.1753 2.84068e-06 9.19525 -10.4751 -1.68581 -1.13331e-06 -31.4573 
9.879 80.864 8.447 -67.396 -76.8167 97.5045 0 -0 0 -2.51642 -10.5212 9.46566 20.5334 -19.1777 -1.06815e-05 45.7136 -13.6265 24.1828 -180 83.5194 -180 -9.82629 4.52386 -0.389097 -9.98453 14.2844 4.8975e-05 -46.5859 5.02494 -5.93684 -180 -67.3676 180 7.81557 1.8765 0.128202 13.1369 3.53248 -11.6854 14.6678 -3.72943 -88.6254 -0 -0 90.273 1.93489e-05 -5.64915 37.1733 -3.42036 -1.70764e-05 -68.3965 -0.861675 12.2671 -61.3948 -0 -0 51.7136 -7.41324e-06 9.43697 -10.3264 -1.70662 -3.58901e-06 -31.6261 
9.7121 81.121 8.4956 -69.8284 -76.555 99.4397 0 -0 0 -2.14896 -10.541 9.55207 20.3826 -19.1495 0.000190038 45.5191 -13.6015 24.2727 -180 83.2202 -180 -9.78048 4.53654 -0.388306 -10.0474 14.2479 1.73227e-05 -46.6358 5.07335 -6.04461 -180 -67.4421 180 7.8082 1.84049 0.1256 13.0823 4.17799 -10.9129 14.9901 -3.11892 -89.8729 -0 -0 90.7699 -9.06174e-06 -5.07123 36.7634 -3.04031 3.88465e-06 -68.2348 -0.416092 12.6869 -60.5102 -0 -0 51.2486 3.76732e-06 9.67928 -10.1734 -1.72563 -1.86512e-05 -31.7559 
9.5592 81.372 8.5469 -72.2459 -76.2796 101.381 0 -0 0 -1.78359 -10.5392 9.67388 20.2357 -19.0872 -1.57007e-05 45.3696 -13.5613 24.2903 -180 82.9028 -180 -9.76643 4.54093 -0.388202 -10.1119 14.2254 -1.21032e-05 -46.7092 5.12409 -6.14955 -180 -67.4843 180 7.79266 1.80118 0.122697 13.0304 4.82892 -10.2063 15.3282 -2.5042 -91.161 -0 -0 91.0898 6.05085e-05 -4.82743 36.3528 -2.86585 -9.46068e-06 -68.0365 0.0114672 13.1148 -59.6536 -0 -0 50.7854 1.74671e-06 9.91743 -10.018 -1.74214 -1.35505e-05 -31.8494 
9.4208 81.617 8.5977 -74.5861 -75.9796 103.266 0 -0 0 -1.39712 -10.5217 9.83761 20.0831 -18.9953 1.62617e-05 45.2663 -13.5062 24.2413 -180 82.5817 -180 -9.78465 4.53517 -0.388401 -10.1816 14.2215 -2.51258e-05 -46.802 5.16488 -6.24779 -180 -67.5008 180 7.7709 1.75957 0.119501 12.9763 5.47073 -9.57126 15.6933 -1.89094 -92.4747 -0 -0 91.223 -4.1226e-05 -4.87642 36.009 -2.87143 2.50784e-05 -67.9892 0.438187 13.5466 -58.83 -0 -0 50.3318 3.7766e-06 10.1478 -9.86036 -1.75564 8.65338e-06 -31.942 
9.2989 81.852 8.6508 -76.8164 -75.6741 105.074 0 -0 0 -1.0269 -10.4952 10.0288 19.9367 -18.8754 -8.44249e-05 45.2032 -13.4528 24.1323 -180 82.2422 -180 -9.83481 4.51947 -0.388998 -10.2355 14.2349 -7.3992e-05 -46.9167 5.20124 -6.33319 -180 -67.4925 180 7.74062 1.71365 0.115895 12.9368 6.08948 -9.00078 16.0547 -1.29179 -93.8215 -0 -0 91.1749 -1.29596e-05 -5.14279 35.7698 -3.01141 -3.6486e-05 -68.1131 0.837022 13.967 -58.0543 -0 -0 49.8886 5.4417e-06 10.3709 -9.70226 -1.76662 -1.07642e-05 -31.9993 
9.1317 82.05 8.7977 -82.4873 -75.9024 109.989 0 -0 0 -1.84337 -9.66428 10.5574 20.1528 -18.7578 -4.48747e-06 45.2074 -13.4077 23.9317 -180 81.8997 -180 -9.91239 4.49795 -0.390295 -9.91749 14.1735 -1.57532e-05 -47.05 5.25669 -6.42575 -180 -67.4578 180 7.70083 1.66281 0.111899 13.2755 6.62369 -8.51805 15.5799 -0.186797 -94.9212 -0 -0 90.9806 5.37297e-05 -5.47291 35.7994 -3.2078 -2.6191e-05 -68.6314 0.419523 15.0733 -56.7946 -0 -0 49.3 -9.28629e-06 10.5441 -9.7745 -1.80997 8.50017e-06 -31.7514 
9.0466 82.256 8.8543 -84.3634 -75.5897 111.525 0 -0 0 -1.51779 -9.6329 10.7841 20.0216 -18.6032 -1.28149e-05 45.2202 -13.3797 23.7195 -180 81.5307 -180 -10.0201 4.46491 -0.391599 -9.92285 14.2094 3.70943e-05 -47.1899 5.27798 -6.47022 -180 -67.4007 180 7.65197 1.60704 0.107498 13.2749 7.15586 -8.07753 15.9007 0.355047 -96.3214 -0 -0 90.5282 3.90674e-06 -5.93271 35.8405 -3.48184 5.43004e-05 -69.3386 0.752769 15.4356 -56.1437 -0 -0 48.8899 7.46358e-06 10.7569 -9.61018 -1.8166 -7.55204e-06 -31.7616 
8.984 82.444 8.9135 -86.0288 -75.3006 112.903 0 -0 0 -1.2227 -9.60355 11.0144 19.8982 -18.4451 -0.000165242 45.2714 -13.3714 23.4616 -180 81.1491 -180 -10.1523 4.4263 -0.393401 -9.89448 14.2497 -3.3147e-05 -47.3361 5.29067 -6.48979 -180 -67.3222 180 7.59234 1.54685 0.102602 13.2946 7.6293 -7.70517 16.1763 0.855324 -97.7488 -0 -0 89.8503 -5.33008e-05 -6.35419 36.013 -3.74604 3.18885e-05 -70.3022 1.04344 15.7485 -55.5778 -0 -0 48.5089 7.76196e-08 10.9671 -9.44313 -1.82106 5.03424e-06 -31.7495 
8.9451 82.612 8.9769 -87.4858 -75.0485 114.134 0 -0 0 -0.971415 -9.57699 11.2409 19.7843 -18.2899 -8.04841e-05 45.3606 -13.3873 23.1648 -180 80.7389 -180 -10.3051 4.38502 -0.395594 -9.82797 14.2872 -4.96434e-05 -47.4776 5.29814 -6.4833 -180 -67.22 180 7.52239 1.48263 0.0975037 13.3367 8.03946 -7.4032 16.3892 1.30372 -99.1994 -0 -0 88.9232 3.93268e-05 -6.64913 36.2976 -3.94772 1.48992e-05 -71.4278 1.27933 16.0043 -55.1053 -0 -0 48.1568 -4.88953e-07 11.1765 -9.27429 -1.82383 -2.19612e-05 -31.7086 
